<?xml version="1.0" encoding="UTF-8"?>
<svg version="1.1" viewBox="0 0 2000 2000" width="500" height="500" xmlns="http://www.w3.org/2000/svg">
<path transform="translate(483,600)" d="m0 0h25l15 3 15 6 14 8 14 12 11 11 7 8 19 19 7 8 24 24 7 8 24 24 7 8 22 22 7 8 19 19 7 8 25 25 7 8 26 26 7 8 24 24 7 8 9 9 8 12 3 11-1 11-4 10-9 10-7 5-10 3h-9l-12-3-9-6-18-18-7-8-28-28-7-8-18-18-7-8-15-15-7-8-27-27-7-8-33-33-7-8-19-19-7-8-13-13-7-8-27-27-7-8-9-9-8-4-4-1h-10l-10 5-7 7-7 8-21 21-2 3h-2l-2 4-19 19-1 2h-2l-2 4-23 23-7 8-23 23-3 4h-2l-2 4-29 29-7 8-13 13-7 8-23 23-7 8-23 23-7 8-8 9-6 11-2 8v328l2 12 6 12 7 8 14 8 13 3 461 1 10 2 8 4 4 3v2h2l6 9 3 8 1 12-3 10-6 10-7 6-9 4-4 1-13 1h-447l-23-2-19-5-16-7-15-9-11-9-9-9-12-17-9-19-5-17-2-17v-337l2-16 5-17 8-16 11-16 6-7 5-5h2l2-4 37-37 7-8 21-21 7-8 22-22 7-8 21-21 2-3h2l2-4 34-34 7-8 24-24 1-2h2l2-4 26-26 1-2h2l2-4 14-14 14-9 15-7 14-4z" fill="#0D0301"/>
<path transform="translate(388,969)" d="m0 0h32v7l-1 1-30 1-6 3-3 4-3 11-1 16h240l-3-23-4-8-7-3-30-1-1-1v-7h33l8 4 7 8 4 11 1 16v185l-1 21-4 12-5 6-4 3-4 1-22 1h-189l-13-2-5-3-5-7-3-9-1-8v-213l2-9 5-8 8-7zm-12 52v189l2 9 5 8 8 3h211l6-3 4-5 2-5 1-6 1-23v-166l-1-1z" fill="#020000"/>
<path transform="translate(1361,1052)" d="m0 0h35l24 1 10 3 10 6 7 9 4 11v18l-4 11-9 10-3 2 2 6 12 22 4 8-12 1h-20l-3-1-10-19-5-10h-11l-1 29-1 1h-29l-1-6v-100zm30 25-1 2 1 26h15l8-2 5-6 1-2v-9l-4-6-5-2-10-1z" fill="#010000"/>
<path transform="translate(1128,1052)" d="m0 0 30 1v38l16-2 5-5 8-21 3-9 1-1 33-1-1 6-14 34-7 14v5l9 16 15 28 2 4-1 1h-33l-3-3-6-11-11-23-2-3-14-1v40l-2 1h-28l-1-4v-103z" fill="#0D0301"/>
<path transform="translate(977,1052)" d="m0 0h29l1 1v38l16-2 5-5 11-30 1-1 33-1-1 5-11 28-7 16-4 8 10 18 13 24 4 8-8 1h-26l-3-3-15-29-4-8-14-1v40l-1 1h-29l-1-1v-106z" fill="#0D0200"/>
<path transform="translate(818,1052)" d="m0 0 7 1 16 42 15 38 9 23-1 4h-30l-3-5-3-10h-32l-6 1-4 12-3 2h-26l-5-1 2-6 22-57 17-43zm-10 38-9 24-2 5v3h23l-1-7-7-20-2-5z" fill="#0D0301"/>
<path transform="translate(1277,1052)" d="m0 0 30 1 34 88 6 15-1 4h-30l-2-2-4-12-9-1h-28l-5 13-1 1-26 1h-6l-1-3 10-25 18-46 13-33zm12 38-10 30v2h24l-9-26-3-6z" fill="#0E0301"/>
<path transform="translate(907,1050)" d="m0 0h14l13 3 8 4 8 7 6 12 2 9-1 1-27 1-2-1-4-9-4-2h-9l-5 2-2 2v6l6 5 16 5 12 4 9 5 6 5 5 9 1 4v14l-4 10-5 6-10 6-13 4h-22l-12-4-10-7-6-7-4-9-1-9 1-1h29l4 9 6 3h9l6-3v-8l-4-4-11-4-18-5-10-6-7-8-4-10v-12l4-10 6-8 14-7z" fill="#010000"/>
<path transform="translate(159,916)" d="m0 0h1v12l-4 7v45l4 24 6 11 1 8-2-3-4-9-1-4h-2l4 9 2 12 6 13-1 6 1 4h2l3 7 2 6 3 4-1 7-2 2v8l4 11-1 7-2 13 1 12h2l3 4-1 7-4 6h-2l1 17-3 12-7 14-3 4-2 10-3 12h2v-3h2l-3 15-3 9-2 13v13 4l-1 14 2 25 4 21 5 12v2l2 1 3 5-1 2-6-9-7-15-5-17-2-17v-337l2-16 5-17z"/>
<path transform="translate(651,1052)" d="m0 0 95 1 1 4v23l-1 1h-32v78l-3 1h-27l-1-1v-78h-32l-1-1v-27z" fill="#0E0301"/>
<path transform="translate(219,1013)" d="m0 0h2l1 25v157l-1 33-4-3-5-12-1-7-1-9-5-12v-16l-6-5v-6l3-1v-5l-3-1-2 3h-2v2h-3l-1-4 4-6 2-1-1-6 3-1v4l3-1 4-4v-6h-4v-3l-6 1-3-3v-2l-2-1 6-1-2-4 1-3-3-1h2l1-5 6-2 2-13 1-7-1-2-5-2-1-5 7-13 4-6v-6l-2-4v-7l3-5 5-8 1-13z"/>
<path transform="translate(556,722)" d="m0 0 5 2 7 8 6 7 2 1v2l4 2 9 8 5 5 16 15 19 19 7 8 11 12 21 21v2h2l7 8 5 4 6 7 16 16 7 8 16 16 8 7 12 12 7 8 7 7h2l7 8 7 7 11 9 12 6h12l12-4 9-8 3-7v-13l-4-10-8-11-12-14-9-10v-2l-4-2-13-12-31-31v-2h-2l-7-9-13-13-7-9-10-12v-2l4 2 7 8 25 25 7 8 26 26 7 8 24 24 7 8 9 9 8 12 3 11-1 11-4 10-9 10-7 5-10 3h-9l-12-3-9-6-18-18-7-8-28-28-7-8-18-18-7-8-15-15-7-8-27-27-7-8-33-33-7-8-19-19-7-8-13-13z" fill="#020101"/>
<path transform="translate(1385,1062)" d="m0 0 13 1 4 5 1 5-1 4h6v1h-17v27l3 1 2 7-1 15h6v1l-9 1-2 13-6 6-11 1-5-2-3-7v-22l3-13v-32l1-4 5-4 6-3z" fill="#0E0301"/>
<path transform="translate(903,1076)" d="m0 0h2l-1 9 6 5 16 5 12 4 9 5 6 5 5 9 1 4v14l-4 10-5 6-10 6-13 4h-22l-12-4-10-7-6-7-4-9-1-9 1-1h29l4 9 7 4-2 5-3 3 2 5 4 4 21 2v-3l10-4 4-8-1-6 4-10-1-7-7-8-8-6-2-1h-10l-6-2-1-2-6 3-6-4-4 3v-8l2-1-10-7 2-4 5-5z" fill="#010000"/>
<path transform="translate(1128,1052)" d="m0 0 30 1v15l-6 3-1 4-8 4h-2v2l-3 3-3 6-1 22v11l2 12 2-2 5 3 4 5 4 4 2 4 5 2v8l-2 1h-28l-1-4v-103z" fill="#010000"/>
<path transform="translate(1421,1066)" d="m0 0 12 2 6 4 3 4 2 4v8l-2 4-2 1 1 3-1 9-6 8-2-1-1 9 1 7v10l-3 7h-7l-6-4-7-8-4-6 1-12h-2v-5l3-4-1-2 8-2 4-5 2-4h2l2-9v-1l-4-5-3-4 1-6z" fill="#0D0200"/>
<path transform="translate(684,1083)" d="m0 0 6 1 3 8 2 11v14l4 8 5 5 5 1 3-6h-7l-2-2v-3l-4-2v-2l-3-2 1-5 4-1 2 6 5 1 5 2v42l-2 1h-27l-1-1v-74z" fill="#010000"/>
<path transform="translate(917,1099)" d="m0 0 3 2v2h14l6 4 11 10 2 4-1 7-3 8 1 9-4 5-8 4h-3v3h-14l-9-2-5-7 2-5h2l2-5 11-2 3-2 2-7v-8l-3 3-6-7-5-5-3-5v-3z" fill="#0D0200"/>
<path transform="translate(904,1064)" d="m0 0h9l3 4h2l1-2 6-2 5 1 2 2-1 3 5-2h8l4 4 2 10-1 4-19 1-2-1-4-9-4-2h-9l-12 4-5 5v2l9 6v3l-2-1 1 7 4-4 5 5v3l-18 2-8-3-4-8-1-4 3 1 2-4 7-1-3-2h-3l-2-5v-3l-5-6 1-4h3v-2h9l11-1z" fill="#0D0301"/>
<path transform="translate(669,1328)" d="m0 0h57l10 2 8 4 4 3v2h2l6 9 3 8 1 12-3 10-6 10-7 6-9 4-4 1h-87v-1l45-1 43-4 10-5 4-6 2-1-1-8v-9l2 3v-7l-7-14-16-8-12-3-18-2-13-2-14-2z" fill="#010000"/>
<path transform="translate(462,1125)" d="m0 0h131v8l-1 1h-130l-1-1v-7z" fill="#010000"/>
<path transform="translate(462,1064)" d="m0 0h130l1 1v7l-11 1h-118l-3-1v-7z" fill="#020100"/>
<path transform="translate(977,1052)" d="m0 0h29l1 1v20l-4-1-3-5-1-1h-6l-8 5-4 9-1 24v29l3 14 2 4 5 2h8l4-4 4-9h1v19l-1 1h-29l-1-1v-106z" fill="#020100"/>
<path transform="translate(462,1187)" d="m0 0h130l1 1v6l-1 1h-129l-2-1v-6z" fill="#020000"/>
<path transform="translate(651,1052)" d="m0 0 95 1 1 4-1 6-7 2-13 2 2-2-18-4-25-1-18 1-1 2-6 1v-3l-5 2h-3v2h4v4l7 5 6 2-1 2 3 2-4 1h-16l-1-1v-27z"/>
<path transform="translate(1069,1052)" d="m0 0h4l-1 5-11 28-7 16-4 6h-1v-7l5-15 1-5v-8l-3-2h-5l-11 10-4 2 1 2-2 2-2-1v7l-2 3-7-1-5-2 3-2 7-2 3-4 11-30 1-1z" fill="#010000"/>
<path transform="translate(1051,1113)" d="m0 0 3 3 14 26 9 16-3 2h-31l-3-3-15-29-1-5h3v2l4 1 7 5 1 7 7 10 1 1h7l-3-2 2-4-1-13-1-3z" fill="#020101"/>
<path transform="translate(437,969)" d="m0 0h115v7l-1 1h-113l-1-1z" fill="#010000"/>
<path transform="translate(439,718)" d="m0 0 2 1-21 21-1 2h-2l-2 4-23 23-7 8-23 23-3 4h-2l-2 4-29 29-7 8-13 13-7 8-23 23-7 8-23 23-7 8-8 9-4 4v-4l9-13h2l2-4 7-8 28-28 8-7 14-15 13-13h2v-2h2l2-4 8-8 1-3 5-3 17-17 7-8 6-7 2-1v-2l7-5 2-3h2v-2h2l2-4 9-11h2v-2l8-7 17-16z" fill="#030101"/>
<path transform="translate(778,1091)" d="m0 0 2 1 1 8 1 1v7l-4 5-1-1-5 13 3 11-3-1 2 6-2 6h16l-1 7-2 5-2 1h-26l-5-1 2-6 22-57z" fill="#010000"/>
<path transform="translate(818,1052)" d="m0 0 7 1 14 36v4l-4-2-7-10-5-9-1-3-5 2h-10l-6-5v-5l-5 1-3 4h-2v2h-2l1-8 3-7z"/>
<path transform="translate(483,600)" d="m0 0h25l15 3 15 6 14 8 13 11-1 2-11-7-13-8-11-4-4-1-6-3-10-1h-16l-18 3-31 11h-3l-1 2-7 4-5 3 2-4 7-6 11-7 15-7 14-4z" fill="#010000"/>
<path transform="translate(446,1101)" d="m0 0 3 1 1 5-15 24-14 21-5-2-9-11-8-10-1-5 5-1 8 7 6 8 3-1 18-27 6-8z" fill="#020100"/>
<path transform="translate(1220,1052)" d="m0 0h4l-1 6-14 34-3 4 1-6 4-16-1-7-5-1h-8l-5 2-2 3-2 7-4 4-3 4h-2l3-10 8-22 1-1z"/>
<path transform="translate(445,1035)" d="m0 0 4 1 1 5-10 16-8 12-7 10-4 5-5-1-9-10-8-11 1-5 5 1 5 5 7 8h3l14-22 8-11z" fill="#020100"/>
<path transform="translate(1201,1111)" d="m0 0 3 3 14 26 10 18-1 2h-33l-3-3-6-11-1-4 6 2 7 6 1-1h14 2v-5l-3-3-4-5-3-10-4-8z" fill="#020101"/>
<path transform="translate(445,1163)" d="m0 0h4l1 4-6 11-13 20-8 12-4 2-8-7-11-13-2-6 1-2 5 1 8 8v2h2l3 4 3 1 2-5 10-15 11-16z" fill="#030101"/>
<path transform="translate(1277,1052)" d="m0 0 30 1 13 34v3l-4-2-4-7-5-8-8-7-4-2h-14l-6 1-6 12-1 3-3 1 1-6 9-22z" fill="#010000"/>
<path transform="translate(845,1108)" d="m0 0 3 4 13 34 4 10-1 4h-30l-3-5-4-11 5-2 3 3 9 4 12 1-2-7-3-5-2-9-6-11v-6z" fill="#010000"/>
<path transform="translate(593,660)" d="m0 0 4 1 16 17 21 21 7 8 24 24 7 8 22 22-1 2-11-10-2-1v-2l-4-2-9-7-12-13-7-8-13-12-11-11-7-8-6-8-5-5-6-7-5-7h-2z" fill="#030101"/>
<path transform="translate(562,943)" d="m0 0 5 1v56l-3 2-5-1-1-57z" fill="#020101"/>
<path transform="translate(428,943)" d="m0 0 5 1v57l-5 1-3-1v-57z" fill="#020101"/>
<path transform="translate(1244,1134)" d="m0 0h1v7l1 7 3 2h7l8-3 3-2h4l-1 7-3 7-26 1h-6l-1-3 9-22z" fill="#030202"/>
<path transform="translate(222,1389)" d="m0 0 23 3 13 2 35 2h12l16 1 78 1v1h-144l-20-4-13-5z" fill="#010000"/>
<path transform="translate(1313,1146)" d="m0 0 13 2 7 4h5l5-5 4 9-1 4h-30l-2-2-2-6v-5z" fill="#020101"/>
<path transform="translate(290,769)" d="m0 0 2 1-8 10-8 9-1 3-4 2-4 7h-2l-2 4-4 2-4 4h-2l-2 4-5 3v-3l10-10 7-8 22-22z" fill="#040302"/>
<path transform="translate(224,1298)" d="m0 0h2l5 10 7 8 13 8-3 1-9-3-8-5-5-6-2-5z" fill="#020101"/>
<path transform="translate(745,1073)" d="m0 0h1l1 7h-28l3-3 5-1z"/>
<path transform="translate(926,1075)" d="m0 0 4 1 3-1 1 6 4 2 1 3-9 1-2-1-3-10z" fill="#0B0A0A"/>
<path transform="translate(357,702)" d="m0 0v3l-24 24-10 9-2-1 19-19 8-7z" fill="#050100"/>
<path transform="translate(183,1362)" d="m0 0 8 6 6 3v2l5 2 4 3 1 2 4 2 2 3-5-2-14-9-11-10z" fill="#050303"/>
<path transform="translate(210,852)" d="m0 0h2l-2 4-16 15-5 4 2-4zm-23 23 2 1-4 3zm-3 4m-2 1 2 1-2 1z" fill="#100C0B"/>
<path transform="translate(239,822)" d="m0 0 2 1-6 7-7 8-10 9-2-1 12-12 7-8z" fill="#020000"/>
<path transform="translate(451,705)" d="m0 0v3l-8 9-4 1v-2l6-5 4-5z" fill="#080808"/>
<path transform="translate(203,861)" d="m0 0v3l-8 8-6 7-5 4-2-1z"/>
<path transform="translate(556,722)" d="m0 0 5 2 7 8 6 7 2 1v2l-4-2-10-10z" fill="#030000"/>
<path transform="translate(188,1089)" d="m0 0 6 5 1 3-8 4z"/>
<path transform="translate(816,1106)" d="m0 0h5l2 5-3 3h-2l-2-4z" fill="#030000"/>
<path transform="translate(362,695)" d="m0 0h2l-2 4-3 3h-2l2-4zm-6 7m-2 1 2 1-2 1z" fill="#090707"/>
<path transform="translate(187,1106)" d="m0 0h6l-2 4-3 5-2-1z"/>
<path transform="translate(700,1132)" d="m0 0 7 2h2l-1 3-3-1-1 3-3-1z" fill="#0E0301"/>
<path transform="translate(1337,1134)" d="m0 0 3 4 2 8-3 1-2-8z" fill="#020000"/>
<path transform="translate(326,734)" d="m0 0m-1 1m-1 1m-1 1m-3 1 3 1-4 4h-2l2-4zm-5 5 2 1-3 2z" fill="#191413"/>
</svg>
